<?xml version="1.0" standalone="no"?>
<!DOCTYPE svg PUBLIC "-//W3C//DTD SVG 20010904//EN"
 "http://www.w3.org/TR/2001/REC-SVG-20010904/DTD/svg10.dtd">
<svg version="1.0" xmlns="http://www.w3.org/2000/svg"
 width="120.000000pt" height="120.000000pt" viewBox="0 0 120.000000 120.000000"
 preserveAspectRatio="xMidYMid meet">
<metadata>
Created by potrace 1.11, written by Peter Selinger 2001-2013
</metadata>
<g transform="translate(0.000000,120.000000) scale(0.100000,-0.100000)"
fill="#000000" stroke="none">
<path d="M554 1025 c-60 -31 -73 -108 -25 -156 91 -91 230 36 144 131 -34 37
-77 46 -119 25z"/>
<path d="M330 735 l0 -65 100 0 100 0 0 -185 0 -185 -100 0 -100 0 0 -65 0
-65 270 0 270 0 0 65 0 65 -100 0 -100 0 0 250 0 250 -170 0 -170 0 0 -65z"/>
</g>
</svg>
